<?xml version="1.0" standalone="no"?>
<!DOCTYPE svg PUBLIC "-//W3C//DTD SVG 20010904//EN"
 "http://www.w3.org/TR/2001/REC-SVG-20010904/DTD/svg10.dtd">
<svg version="1.0" xmlns="http://www.w3.org/2000/svg"
 width="925.000000pt" height="925.000000pt" viewBox="0 0 925.000000 925.000000"
 preserveAspectRatio="xMidYMid meet">
<metadata>
Created by potrace 1.14, written by Peter Selinger 2001-2017
</metadata>
<g transform="translate(0.000000,925.000000) scale(0.100000,-0.100000)"
fill="#000000" stroke="none">
<path d="M4485 9243 c-1714 -58 -3241 -1045 -4001 -2586 -743 -1506 -605
-3299 359 -4677 331 -473 759 -890 1237 -1206 587 -387 1213 -626 1895 -723
240 -34 391 -45 655 -45 505 1 921 64 1405 215 403 126 881 363 1235 611 297
209 644 522 871 789 718 839 1109 1898 1109 3004 0 717 -156 1388 -471 2030
-363 740 -916 1370 -1599 1820 -609 402 -1257 642 -1980 735 -139 17 -546 43
-610 38 -14 -1 -61 -3 -105 -5z"/>
</g>
</svg>
